<svg width="204" height="59" viewBox="0 0 204 59" fill="none" xmlns="http://www.w3.org/2000/svg">
    <path d="M83.169 26.168c.313.783.509 1.605.509 2.466a6.424 6.424 0 0 1-.822 3.21 6.427 6.427 0 0 1-2.232 2.35c-.94.587-1.958.862-3.093.862h-4.738v.039H67.82v-20.4h9.202c1.057 0 2.036.274 2.936.823a5.794 5.794 0 0 1 2.115 2.231c.509.94.783 1.919.783 2.976a5.848 5.848 0 0 1-1.058 3.406c.588.588 1.058 1.253 1.37 2.037zm-10.415-6.774v3.015l4.228-.04c.314 0 .627-.117.901-.391s.392-.626.392-1.018c0-.43-.118-.822-.392-1.096-.274-.274-.548-.431-.9-.431h-4.23v-.04zm4.737 11.002c.392 0 .744-.196 1.019-.548.273-.352.43-.783.43-1.253 0-.47-.156-.9-.43-1.253-.275-.352-.627-.548-1.019-.548h-4.737v3.563h4.737v.04zM86.732 19.709a10.604 10.604 0 0 1 3.837-3.838c1.605-.94 3.367-1.41 5.286-1.41 1.958 0 3.798.51 5.442 1.489 1.645 1.018 2.937 2.349 3.837 4.033l-4.385 2.349a5.452 5.452 0 0 0-2.036-2.075 5.184 5.184 0 0 0-2.858-.823c-1.018 0-1.958.235-2.78.744a5.639 5.639 0 0 0-2.036 2.037c-.51.86-.744 1.761-.744 2.78 0 1.017.235 1.957.744 2.78.509.86 1.174 1.526 2.036 1.996.861.51 1.762.744 2.78.744 1.057 0 2.036-.274 2.897-.822a5.124 5.124 0 0 0 1.997-2.193l4.425 2.389a10.461 10.461 0 0 1-3.877 4.072 10.335 10.335 0 0 1-5.481 1.527c-1.919 0-3.68-.47-5.286-1.41a10.604 10.604 0 0 1-3.837-3.837c-.94-1.605-1.41-3.367-1.41-5.286.04-1.88.51-3.641 1.449-5.246zM119.465 25.071V14.695h5.012v20.439h-4.19l-7.478-11.707v11.707h-4.973V14.695h4.973l6.656 10.376z" fill="#202020"/>
    <path d="M49.523 56.663c0-2.022.067-11.32 0-14.62-.135-8.625-.741-20.146-3.908-33.351-3.166 13.273-3.705 24.726-3.907 33.35-.068 3.302 0 12.6 0 14.62h-.809c0-2.492.067-16.102 0-19.47-.135-8.625-.741-20.146-3.84-33.351-3.167 13.273-3.706 24.726-3.908 33.35v19.472h-.809v-8.085h-7.546v-.741h7.546V35.372a4.37 4.37 0 0 0-4.379-4.38 4.37 4.37 0 0 0-4.38 4.38v10.309h7.48v.808H23.65V56.73h-.808V37.26c-.135-8.624-.742-20.145-3.908-33.35-3.167 13.272-3.706 24.726-3.908 33.35-.067 3.368 0 17.046 0 19.471h-.808c0-2.021.067-11.319 0-14.62-.135-8.624-.742-20.145-3.908-33.35-3.167 13.272-3.706 24.726-3.908 33.35-.067 3.301 0 12.599 0 14.62H4.584v.741h46.758v-.74h-1.819v-.068zM30.321 43.996a.435.435 0 0 1-.404.404h-3.908a.435.435 0 0 1-.404-.404v-2.425c0-1.887.741-3.639 2.088-4.986a.41.41 0 0 1 .54 0c1.347 1.347 2.088 3.1 2.088 4.986v2.425zm-4.649 12.667v-2.089c0-1.886.741-3.638 2.089-4.986a.41.41 0 0 1 .539 0c1.347 1.348 2.088 3.1 2.088 4.986v2.089h-4.716zM10.378 7.543c.741 0 1.348-.607 1.348-1.348 0-.741-.607-1.347-1.348-1.347-.741 0-1.348.606-1.348 1.347-.067.741.54 1.348 1.348 1.348zm0-1.954c.337 0 .606.27.606.606 0 .337-.27.607-.606.607a.604.604 0 0 1-.606-.607c0-.337.27-.606.606-.606zM45.617 7.543c.741 0 1.348-.607 1.348-1.348 0-.741-.607-1.347-1.348-1.347-.741 0-1.347.606-1.347 1.347s.606 1.348 1.347 1.348zm0-1.954c.337 0 .606.27.606.606 0 .337-.27.607-.606.607a.604.604 0 0 1-.606-.607c0-.337.27-.606.606-.606zM18.934 2.695c.741 0 1.348-.606 1.348-1.347C20.282.605 19.675 0 18.934 0c-.74 0-1.347.606-1.347 1.347 0 .742.606 1.348 1.347 1.348zm0-1.954c.337 0 .607.27.607.606 0 .337-.27.607-.607.607a.604.604 0 0 1-.606-.607c0-.336.27-.606.606-.606zM37.06 2.695c.74 0 1.347-.606 1.347-1.347C38.407.605 37.801 0 37.06 0c-.742 0-1.348.606-1.348 1.347-.067.742.54 1.348 1.348 1.348zm0-1.954c.337 0 .606.27.606.606 0 .337-.337.607-.606.607-.27 0-.607-.27-.607-.607 0-.336.27-.606.607-.606z" fill="#00F"/>
    <path d="M5.794 57.402c-2.425-3.975-3.907-8.691-3.907-13.677 0-14.35 11.723-26.074 26.074-26.074 14.35 0 26.074 11.723 26.074 26.074 0 4.986-1.415 9.77-3.908 13.745h2.223a27.89 27.89 0 0 0 3.639-13.745c0-15.429-12.532-27.96-27.961-27.96C12.599 15.765 0 28.296 0 43.725A27.89 27.89 0 0 0 3.638 57.47h2.156v-.068z" fill="#00F"/>
    <path d="m83.56 37.764 4.973-.04v20.44H83.56V46.847l-4.776 7.987H77.57l-4.777-7.987v11.315H67.82v-20.4h4.973v.04l.04-.04 5.363 8.928 5.364-8.927zM96.011 57.186a10.604 10.604 0 0 1-3.837-3.837c-.94-1.606-1.41-3.368-1.41-5.286 0-1.919.47-3.68 1.41-5.286a10.604 10.604 0 0 1 3.837-3.837c1.606-.94 3.368-1.41 5.286-1.41 1.919 0 3.681.47 5.286 1.41a10.608 10.608 0 0 1 3.837 3.837c.94 1.605 1.41 3.367 1.41 5.286 0 1.918-.47 3.68-1.41 5.286a10.608 10.608 0 0 1-3.837 3.837c-1.605.94-3.367 1.41-5.286 1.41-1.88 0-3.641-.47-5.286-1.41zm8.066-4.307c.862-.51 1.527-1.175 1.997-1.997.509-.861.744-1.762.744-2.78 0-1.018-.235-1.958-.744-2.78a5.853 5.853 0 0 0-1.997-2.036c-.861-.509-1.762-.744-2.78-.744-1.018 0-1.957.235-2.78.744a5.639 5.639 0 0 0-2.036 2.036c-.509.861-.744 1.762-.744 2.78 0 1.018.235 1.958.744 2.78.51.861 1.175 1.527 2.036 1.997.862.509 1.762.744 2.78.744a5.565 5.565 0 0 0 2.78-.744zM125.692 48.14V37.764h5.012v20.438h-4.189l-7.479-11.668v11.668h-4.973V37.764h4.973l6.656 10.376zM139.355 50.097v3.407h7.988v4.698h-12.96V37.764h12.803v4.698h-7.87V45.4h7.126v4.698h-7.087zM164.492 37.764v4.698h-5.168v15.74h-4.973v-15.74h-5.168v-4.698h15.309zM166.646 58.202V37.764h4.972v20.438h-4.972zM188.337 41.366l-7.557 12.138h7.596v4.698h-13.86V54.6l7.556-12.138h-7.517v-4.698h13.782v3.602zM196.012 50.097v3.407h7.987v4.698h-12.96V37.764h12.804v4.698h-7.87V45.4h7.126v4.698h-7.087z" fill="#202020"/>
</svg>
